HIERARCHY
ROOT Hips
{
	OFFSET 0.00000 0.00000 0.00000
	CHANNELS 6 Xposition Yposition Zposition Zrotation Yrotation Xrotation 
	JOINT LHipJoint
	{
		OFFSET 0 0 0
		CHANNELS 3 Zrotation Yrotation Xrotation
		JOINT LeftHip
		{
			OFFSET 1.17584 -1.63585 1.00361
			CHANNELS 3 Zrotation Yrotation Xrotation
			JOINT LeftKnee
			{
				OFFSET 2.23889 -6.15131 0.00000
				CHANNELS 3 Zrotation Yrotation Xrotation
				JOINT LeftAnkle
				{
					OFFSET 2.65161 -7.28525 0.00000
					CHANNELS 3 Zrotation Yrotation Xrotation
					JOINT LeftToe
					{
						OFFSET 0.24898 -0.68407 1.57235
						CHANNELS 3 Zrotation Yrotation Xrotation
						End Site
						{
							OFFSET 0.00000 -0.00000 0.85838
						}
					}
				}
			}
		}
	}
	JOINT RHipJoint
	{
		OFFSET 0 0 0
		CHANNELS 3 Zrotation Yrotation Xrotation
		JOINT RightHip
		{
			OFFSET -1.15592 -1.63585 1.00361
			CHANNELS 3 Zrotation Yrotation Xrotation
			JOINT RightKnee
			{
				OFFSET -2.34071 -6.43104 0.00000
				CHANNELS 3 Zrotation Yrotation Xrotation
				JOINT RightAnkle
				{
					OFFSET -2.59113 -7.11908 0.00000
					CHANNELS 3 Zrotation Yrotation Xrotation
					JOINT RightToe
					{
						OFFSET -0.17867 -0.49089 1.70981
						CHANNELS 3 Zrotation Yrotation Xrotation
						End Site
						{
							OFFSET -0.00000 -0.00000 0.89861
						}
					}
				}
			}
		}
	}
	JOINT lowerback
	{
		OFFSET 0 0 0
		CHANNELS 3 Zrotation Yrotation Xrotation
		JOINT Chest
		{
			OFFSET -0.02255 1.90764 -0.16605
			CHANNELS 3 Zrotation Yrotation Xrotation
			JOINT Chest2
			{
				OFFSET -0.00365 1.92150 -0.04898
				CHANNELS 3 Zrotation Yrotation Xrotation
				JOINT lowerneck
				{
					OFFSET 0 0 0
					CHANNELS 3 Zrotation Yrotation Xrotation
					JOINT Neck
					{
						OFFSET 0.00372 1.59170 0.08694
						CHANNELS 3 Zrotation Yrotation Xrotation
						JOINT Head
						{
							OFFSET 0.12558 1.58643 -0.08078
							CHANNELS 3 Zrotation Yrotation Xrotation
							End Site
							{
								OFFSET 0.04211 1.60835 -0.03803
							}
						}
					}
				}
				JOINT LeftCollar
				{
					OFFSET 0 0 0
					CHANNELS 3 Zrotation Yrotation Xrotation
					JOINT LeftShoulder
					{
						OFFSET 3.69324 0.96316 0.19077
CHANNELS 3 Zrotation Xrotation Yrotation
						JOINT LeftElbow
						{
OFFSET 0 -4.877960 -0.000000
CHANNELS 3 Zrotation Xrotation Yrotation
							JOINT LeftWrist
							{
OFFSET 0 -3.231690 0.000000
CHANNELS 3 Zrotation Xrotation Yrotation
								JOINT lhand
								{
									OFFSET 0 0 0
CHANNELS 3 Zrotation Xrotation Yrotation
									JOINT LFingers
									{
OFFSET 0 -0.731320 0.000000
CHANNELS 3 Zrotation Xrotation Yrotation
										End Site
										{
OFFSET 0 -0.589610 0.000000
										}
									}
								}
								JOINT LThumb
								{
OFFSET 0 0.000000 0.000000
CHANNELS 3 Zrotation Xrotation Yrotation
									End Site
									{
OFFSET 0 -0.598610 0.598610
									}
								}
							}
						}
					}
				}
				JOINT RightCollar
				{
					OFFSET 0 0 0
					CHANNELS 3 Zrotation Yrotation Xrotation
					JOINT RightShoulder
					{
						OFFSET -3.66103 0.75145 0.08281
CHANNELS 3 Zrotation Xrotation Yrotation
						JOINT RightElbow
						{
OFFSET 0 -4.914300 0.000000
CHANNELS 3 Zrotation Xrotation Yrotation
							JOINT RightWrist
							{
OFFSET 0 -3.290930 0.000000
CHANNELS 3 Zrotation Xrotation Yrotation
								JOINT rhand
								{
									OFFSET 0 0 0
CHANNELS 3 Zrotation Xrotation Yrotation
									JOINT RFingers
									{
OFFSET 0 -0.545120 0.000000
CHANNELS 3 Zrotation Xrotation Yrotation
										End Site
										{
OFFSET 0 -0.439490 0.000000
										}
									}
								}
								JOINT RThumb
								{
OFFSET 0 0.000000 0.000000
CHANNELS 3 Zrotation Xrotation Yrotation
									End Site
									{
OFFSET 0 -0.446200 0.446200
									}
								}
							}
						}
					}
				}
			}
		}
	}
}
MOTION
Frames: 10
Frame Time: 0.008333333333333333
-7.873660 18.943738 0.680402 348.864152 -83.469032 -166.430947 0.000000 0.000000 0.000000 -10.502129 -3.080678 -36.902116 5.187242 13.587525 41.617393 0.116841 1.290293 -7.077915 0.632166 5.078478 14.134499 0.000000 0.000000 0.000000 2.541882 -13.375587 36.249333 -3.725496 -11.785408 34.977658 -5.314511 -13.003516 42.168806 -0.410452 -4.112601 11.393686 1.950506 -0.916807 -5.687082 -1.721902 -1.227015 -7.082236 -2.904324 -0.693016 -4.229951 -4.408168 -1.698392 -18.942620 0.134142 -2.226209 -24.505439 0.800373 -1.400613 -4.559491 0.000000 0.000000 0.000000 148.156543 -20.738455 81.284853 18.996951 -29.407924 5.032794 55.196994 -34.880377 22.918136 0.000000 0.000000 0.000000 -7.125000 0.000000 0.000000 15.268530 -5.421579 17.242156 0.000000 0.000000 0.000000 -142.320468 -23.172596 -84.806671 -22.305808 -33.312519 -6.756685 -51.704885 22.851984 26.249135 0.000000 0.000000 0.000000 7.125000 0.000000 0.000000 -31.458586 65.890744 16.592348
-7.908070 18.557269 0.674052 349.298486 -82.687922 -166.278374 0.000000 0.000000 0.000000 -8.332403 -6.419811 -37.310011 3.650169 11.671953 34.591285 -0.085773 6.441978 -6.562594 0.170475 2.616119 7.214156 0.000000 0.000000 0.000000 1.095910 -12.664274 41.232822 -3.403438 -11.321078 33.370541 -5.855056 -14.689602 44.397262 -0.425779 -4.187710 11.605341 2.242653 -0.528703 -6.447863 -1.605105 -0.752887 -7.020323 -2.945471 -0.469428 -3.711465 -4.745903 -1.693845 -20.072957 0.275110 -2.070514 -23.708500 0.883756 -1.305777 -4.156197 0.000000 0.000000 0.000000 151.802793 -20.046076 83.190519 14.457443 -23.377039 3.012086 67.835284 -48.039510 24.196886 0.000000 0.000000 0.000000 -7.125000 0.000000 0.000000 21.676112 -17.278070 28.884106 0.000000 0.000000 0.000000 -147.714931 -20.704208 -93.471178 -16.200635 -25.768965 -3.745715 -49.473920 27.573293 25.889216 0.000000 0.000000 0.000000 7.125000 0.000000 0.000000 -27.193889 64.756439 13.467856
-7.953643 18.111797 0.646036 346.517511 -81.598504 -163.005212 0.000000 0.000000 0.000000 -5.491429 -11.545764 -37.015731 2.587653 9.991750 28.953464 -0.446633 12.309294 -8.615110 0.010044 -0.418637 -1.150738 0.000000 0.000000 0.000000 -0.210359 -11.336475 44.827336 -3.481402 -11.435865 33.764948 -6.345208 -15.524549 46.355960 -0.445798 -4.283840 11.876587 2.519364 -0.049517 -7.783879 -2.014969 -0.183171 -7.098644 -3.514208 -0.206909 -3.020275 -5.005073 -1.639754 -20.996514 0.230294 -1.848873 -21.832625 0.917049 -1.143343 -3.879444 0.000000 0.000000 0.000000 153.451725 -22.505795 90.914203 12.890433 -21.125362 2.414375 83.393672 -73.269618 27.780926 0.000000 0.000000 0.000000 -7.125000 0.000000 0.000000 31.295864 -41.092332 46.916183 0.000000 0.000000 0.000000 -150.407956 -19.972973 -97.377648 -12.430353 -20.446913 -2.250379 -54.946262 40.463647 28.847956 0.000000 0.000000 0.000000 7.125000 0.000000 0.000000 -41.028696 69.810280 25.917188
-8.000206 17.666840 0.594849 343.895252 -80.173675 -159.535065 0.000000 0.000000 0.000000 -1.489037 -17.852500 -37.208389 1.995020 8.855468 25.344345 -0.781410 16.618942 -12.847632 0.126256 -2.289671 -6.306829 0.000000 0.000000 0.000000 -1.335053 -9.726937 46.430019 -4.062232 -12.242255 36.595266 -6.722972 -14.863958 47.819115 -0.305824 -3.554135 9.825604 2.461858 0.295259 -9.977276 -2.534174 0.222831 -7.407891 -4.002802 -0.005035 -2.111307 -4.542599 -1.400065 -21.508751 -0.073607 -1.545212 -20.054906 0.714318 -0.979294 -3.135530 0.000000 0.000000 0.000000 150.489537 -25.616476 90.581868 16.306369 -25.932673 3.779842 85.057201 -78.720999 30.111240 0.000000 0.000000 0.000000 -7.125000 0.000000 0.000000 31.733573 -45.057578 47.230613 0.000000 0.000000 0.000000 -147.545360 -22.765580 -93.105742 -15.021562 -24.173079 -3.236490 -61.994834 45.658010 31.652006 0.000000 0.000000 0.000000 7.125000 0.000000 0.000000 -67.264415 73.776788 50.960462
-8.070062 17.298516 0.548724 342.167988 -79.299430 -157.179421 0.000000 0.000000 0.000000 2.170684 -21.997649 -38.632791 1.733055 8.286031 23.586534 -0.696782 16.502642 -14.416570 0.276100 -3.367867 -9.305779 0.000000 0.000000 0.000000 -2.328572 -8.786288 47.172474 -5.073845 -13.463868 41.135583 -7.105531 -13.821013 49.290537 -0.170671 -2.660524 7.335022 1.671740 0.256641 -11.249355 -2.499033 0.222590 -7.670473 -3.519885 0.032900 -1.694394 -3.908537 -1.306382 -22.449815 -0.496611 -1.554068 -19.014176 0.448022 -1.031523 -2.623832 0.000000 0.000000 0.000000 146.066365 -26.205895 83.081581 19.414516 -29.928297 5.237098 85.936632 -84.850045 30.453339 0.000000 0.000000 0.000000 -7.125000 0.000000 0.000000 32.430572 -46.469823 48.150617 0.000000 0.000000 0.000000 -142.948566 -24.563668 -84.300727 -19.966867 -30.595365 -5.517845 -66.024161 42.088911 32.117360 0.000000 0.000000 0.000000 7.125000 0.000000 0.000000 -83.582958 73.661699 66.410543
-8.161144 17.028884 0.526636 343.334023 -79.490455 -158.102798 0.000000 0.000000 0.000000 5.162819 -23.430139 -41.214484 1.649289 8.093807 22.999330 -0.525678 13.975242 -11.360828 0.728936 -5.441633 -15.175891 0.000000 0.000000 0.000000 -2.944214 -8.884028 47.989943 -6.280434 -14.690975 46.090096 -7.536570 -13.690142 50.904637 -0.202891 -2.899929 8.000278 2.021511 0.391444 -11.522712 -2.541598 0.358790 -7.821251 -3.750222 0.083863 -1.696315 -3.536081 -1.518488 -21.580611 -0.646015 -2.052215 -20.149913 0.336466 -1.335610 -3.161693 0.000000 0.000000 0.000000 143.303391 -26.612606 77.849118 21.254116 -32.121638 6.185481 87.396226 -90.948689 30.538242 0.000000 0.000000 0.000000 -7.125000 0.000000 0.000000 33.949233 -48.515235 50.226796 0.000000 0.000000 0.000000 -139.854663 -24.073830 -76.650897 -22.569728 -33.611692 -6.900025 -69.719499 42.965526 33.483487 0.000000 0.000000 0.000000 7.125000 0.000000 0.000000 -84.290643 -73.182830 -101.513829
-8.262194 16.839676 0.516242 341.723673 -79.559075 -156.643476 0.000000 0.000000 0.000000 6.875420 -24.455777 -43.434974 1.644172 8.081752 22.962797 -0.521289 12.984987 -7.831784 1.146219 -6.795842 -19.113004 0.000000 0.000000 0.000000 -4.656389 -9.176151 48.633908 -7.659588 -15.860620 51.323004 -7.946882 -12.351406 52.461707 -0.128375 -2.304274 6.347568 1.940232 0.604559 -11.409784 -2.788337 0.626494 -7.869505 -3.937142 0.203876 -1.785718 -3.490382 -1.630557 -20.231645 -0.488260 -2.272755 -21.030493 0.398528 -1.449921 -3.685208 0.000000 0.000000 0.000000 140.996749 -27.870091 75.310180 23.245052 -34.354162 7.276760 88.118046 -93.512620 30.621485 0.000000 0.000000 0.000000 -7.125000 0.000000 0.000000 34.719042 -49.542289 51.236077 0.000000 0.000000 0.000000 -137.646912 -24.789580 -74.363157 -25.087560 -36.290509 -8.342872 -71.342562 45.024937 33.731673 0.000000 0.000000 0.000000 7.125000 0.000000 0.000000 -90.501774 -72.946746 -108.387284
-8.366418 16.719261 0.525549 344.592003 -79.896094 -160.338092 0.000000 0.000000 0.000000 8.271647 -24.925507 -44.881468 1.739244 8.300331 23.630083 -0.595193 13.543944 -5.954083 1.608804 -7.997887 -22.708048 0.000000 0.000000 0.000000 -5.262554 -9.423375 49.393200 -9.081148 -16.859112 56.369476 -8.287646 -11.774276 53.721346 -0.080198 -1.826457 5.026253 2.551583 0.816913 -10.302344 -2.605703 0.854936 -7.650980 -4.076204 0.286459 -2.133136 -3.422500 -1.566191 -20.310913 -0.537060 -2.179247 -20.584419 0.366893 -1.399499 -3.505362 0.000000 0.000000 0.000000 138.702295 -28.797094 73.024775 25.049159 -36.253828 8.319109 88.921320 -95.982059 30.515522 0.000000 0.000000 0.000000 -7.125000 0.000000 0.000000 35.755646 -50.588347 52.633865 0.000000 0.000000 0.000000 -136.155199 -25.572030 -73.655660 -27.503580 -38.654665 -9.812272 -71.576067 45.731281 33.322634 0.000000 0.000000 0.000000 7.125000 0.000000 0.000000 -89.746191 -72.656854 -107.931371
-8.460538 16.642282 0.525342 347.346593 -80.760835 -163.915389 0.000000 0.000000 0.000000 9.104302 -26.034607 -45.959848 1.821783 8.484582 24.195893 -0.763039 15.348773 -7.593838 1.899196 -8.652703 -24.714834 0.000000 0.000000 0.000000 -5.031992 -10.371722 49.491346 -10.194623 -17.516998 60.135657 -8.711697 -13.798691 55.135190 -0.234082 -3.100241 8.559008 3.176478 0.918475 -9.179282 -2.541022 0.961943 -7.381021 -4.362344 0.309158 -2.447765 -3.013403 -1.567614 -20.463938 -0.734323 -2.294080 -20.585043 0.227427 -1.500110 -3.487105 0.000000 0.000000 0.000000 137.021006 -29.606513 71.160514 26.830159 -38.015180 9.394966 89.741654 -98.673758 30.519490 0.000000 0.000000 0.000000 -7.125000 0.000000 0.000000 36.787783 -51.705251 53.963130 0.000000 0.000000 0.000000 -134.481583 -25.374086 -71.892385 -29.435196 -40.402686 -11.042247 -72.648930 47.406312 33.361374 0.000000 0.000000 0.000000 7.125000 0.000000 0.000000 -93.386796 -72.353566 -112.063645
-8.544794 16.579782 0.501093 341.532644 -81.655666 -158.557327 0.000000 0.000000 0.000000 7.316690 -26.970966 -46.179071 1.805618 8.448759 24.085679 -0.801189 16.560163 -12.059719 2.163901 -9.196927 -26.415141 0.000000 0.000000 0.000000 -5.355379 -12.095731 48.600423 -10.546683 -17.705914 61.300299 -8.940114 -13.618589 55.941100 -0.246372 -3.179830 8.780841 2.284362 0.709795 -8.825480 -2.784923 0.755540 -7.202596 -4.127696 0.238475 -2.475989 -2.901404 -1.611439 -20.271998 -0.563592 -2.380425 -21.021205 0.271541 -1.570251 -3.678697 0.000000 0.000000 0.000000 135.560646 -30.234595 69.439104 28.436757 -39.514187 10.400807 91.013993 81.890811 -30.513807 0.000000 0.000000 0.000000 -7.125000 0.000000 0.000000 38.506343 -53.417150 56.122117 0.000000 0.000000 0.000000 -132.798923 -25.133799 -70.084689 -31.361744 -42.030461 -12.312007 -73.748571 48.956639 33.488732 0.000000 0.000000 0.000000 7.125000 0.000000 0.000000 -97.409299 -72.018872 -116.541221
